<svg xmlns="http://www.w3.org/2000/svg" viewBox="0 0 2050 2050" id="Puzzle">
  <path fill="#fbbc05" d="M1084.6 461.6a146 146 0 0 1-92.4 184.6 144.5 144.5 0 0 1-28.5 6.4l61.9 185.7-198.9 66.2a143.8 143.8 0 0 0-5.6-69.7C795.7 758.3 713 717 636.5 742.4a146.1 146.1 0 0 0-55 243.8l-198.8 66.2-167.9-504.1a146.2 146.2 0 0 1 92.6-185l504.1-167.9 61.8 185.7a146.3 146.3 0 0 1 211.3 80.5Z" class="colorf8881b svgShape"></path>
  <path fill="#34a853" d="M1084.6 461.6a146 146 0 0 0-86.7-90.4 146.1 146.1 0 0 1-53.6 245.2 143.5 143.5 0 0 1-28.4 6.4l61.8 185.7-150.8 50.2a143.5 143.5 0 0 1-.2 45.8l198.9-66.2-61.9-185.7a144.5 144.5 0 0 0 28.5-6.4 146 146 0 0 0 92.4-184.6Z" class="colorf89a3e svgShape"></path>
  <path fill="#f0b713" d="M303.5 604.1a146.2 146.2 0 0 1 92.6-185l441-146.9-25.6-76.8-504.1 167.9a146.2 146.2 0 0 0-92.6 185l167.9 504.1 63-21Z" class="colorf08013 svgShape"></path>
  <path fill="#6799eb" d="M1842.7 1177h-205.8a146 146 0 1 1-278.9 60.3 144.7 144.7 0 0 1 13-60.3h-205.9V981.3a146 146 0 1 0 0-286.2V499.4h531.3a146.3 146.3 0 0 1 146.3 146.3Z" class="color67baeb svgShape"></path>
  <path fill="#4285f4" d="M1215.3 1012.8a186.5 186.5 0 0 0 36.1 3.6A181.6 181.6 0 0 0 1433 834.8c0-100.3-81.3-181.5-181.6-181.5a186.5 186.5 0 0 0-36.1 3.5V499.4h-50.2v195.7a145.9 145.9 0 1 1 0 286.2V1177h50.2Z" class="color46a1f8 svgShape"></path>
  <path fill="#f4c63f" d="M958.6 1515.8a146 146 0 0 0 145.9 146 144.3 144.3 0 0 0 60.6-13.2v206H633.8a146.3 146.3 0 0 1-146.3-146.3V1177h209.6a146 146 0 1 1 258.4 0h209.6v206a144.3 144.3 0 0 0-60.6-13.2 146 146 0 0 0-145.9 146Z" class="colorf4c23f svgShape"></path>
  <path fill="#fad464" d="M955.5 1177a146 146 0 0 0-257.7-137.3 146.1 146.1 0 0 1 206.3 192h209.5v138.4a143.1 143.1 0 0 1 51.5 12.9v-206Z" class="colorfad564 svgShape"></path>
  <path fill="#f4c63f" d="M704.5 1789.4a146.3 146.3 0 0 1-146.3-146.3V1177h-70.7v531.3a146.3 146.3 0 0 0 146.3 146.3h531.3v-65.2Z" class="colorf4a93f svgShape"></path>
  <path fill="#de3426" d="M1842.7 1177v531.3a146.3 146.3 0 0 1-146.3 146.3h-531.3v-206a144.3 144.3 0 0 1-60.6 13.2 146 146 0 0 1 0-292 144.3 144.3 0 0 1 60.6 13.2v-206H1371a146 146 0 1 0 278.9 60.3 146.3 146.3 0 0 0-13-60.3Z" class="colorde3226 svgShape"></path>
  <path fill="#b1261a" d="M1529.3 1381.1a150.9 150.9 0 0 0 25.4 2.2 146.1 146.1 0 0 0 132.9-206.3h-50.7a146.3 146.3 0 0 1 13 60.3c0 71.9-52.1 131.7-120.6 143.8zm-313.4 1.9v-206h-50.8v193.2a144.6 144.6 0 0 1 50.8 12.8zm-206.6 132.8a146 146 0 0 1 120.6-143.8 151.8 151.8 0 0 0-25.4-2.2 146 146 0 0 0 0 292 151.8 151.8 0 0 0 25.4-2.2c-68.5-12.1-120.6-71.9-120.6-143.8zm155.8 145.6v193.2h50.8v-206a144.6 144.6 0 0 1-50.8 12.8z" class="colorb11a31 svgShape"></path>
  <rect width="111.8" height="329.42" x="1730.9" y="723" fill="#83b0fb" rx="55.9" ry="55.9" class="color83d0fb svgShape"></rect>
  <rect width="111.8" height="277.54" x="1730.9" y="1438.9" fill="#ea4335" rx="55.9" ry="55.9" class="colorf44533 svgShape"></rect>
</svg>
