<svg xmlns="http://www.w3.org/2000/svg" xmlns:xlink="http://www.w3.org/1999/xlink" width="500" zoomAndPan="magnify" viewBox="0 0 375 374.999991" height="500" preserveAspectRatio="xMidYMid meet" version="1.2"><defs><clipPath id="451f57201f"><path d="M 121 217 L 216 217 L 216 353.609375 L 121 353.609375 Z M 121 217 "/></clipPath><clipPath id="2577e05e85"><path d="M 196 271 L 293 271 L 293 353.609375 L 196 353.609375 Z M 196 271 "/></clipPath><clipPath id="b41f295c19"><path d="M 173 347 L 190 347 L 190 353.609375 L 173 353.609375 Z M 173 347 "/></clipPath><clipPath id="063affc9aa"><path d="M 0 139 L 350 139 L 350 353.609375 L 0 353.609375 Z M 0 139 "/></clipPath><clipPath id="6794361f44"><path d="M 0 21.359375 L 375 21.359375 L 375 353.609375 L 0 353.609375 Z M 0 21.359375 "/></clipPath></defs><g id="77f3982648"><g clip-rule="nonzero" clip-path="url(#451f57201f)"><path style=" stroke:none;fill-rule:evenodd;fill:#ffffff;fill-opacity:1;" d="M 214.171875 302.5 L 214.136719 302.535156 C 212.714844 304.089844 210.316406 304.179688 207.996094 304.265625 C 207.292969 304.289062 206.628906 304.3125 206.046875 304.375 L 205.929688 304.386719 C 200.875 304.839844 194.90625 306.347656 193.269531 308.359375 C 192.96875 308.730469 192.90625 309.011719 192.917969 309.246094 L 193.636719 311.6875 C 194.800781 315.617188 195.808594 319.660156 196.628906 323.71875 C 196.96875 325.367188 197.28125 326.980469 197.5625 328.5625 C 198.4375 333.71875 199.0625 337.839844 199.503906 342.472656 L 199.503906 342.519531 L 199.570312 343.371094 C 199.792969 346.277344 200.03125 350.917969 196.46875 353.609375 L 187.070312 353.609375 C 186.253906 353.335938 185.789062 353.070312 185.550781 352.785156 C 184.820312 351.882812 184.136719 351.027344 183.515625 350.566406 C 181.761719 349.261719 180.550781 349.75 178.328125 351.421875 C 177.132812 352.246094 175.882812 352.976562 174.578125 353.609375 L 133.523438 353.609375 C 130.589844 352.242188 126.960938 350.335938 125.800781 348.195312 L 125.398438 347.445312 C 121.277344 339.945312 120.867188 331.5 121.03125 323.5 C 121.460938 308.953125 124.652344 297.8125 131.09375 288.433594 C 136.03125 281.398438 142.757812 275.226562 148.0625 270.632812 C 148.632812 270.128906 149.273438 269.589844 149.894531 269.070312 C 151.265625 267.933594 152.671875 266.761719 153.492188 265.8125 C 153.691406 265.589844 153.847656 265.34375 153.953125 265.066406 C 153.980469 264.910156 153.925781 264.164062 150.183594 261.765625 L 149.710938 261.464844 C 148.144531 260.449219 146.339844 259.195312 144.863281 257.585938 C 138.953125 251.203125 139.941406 239.3125 144.566406 232.210938 L 144.597656 232.164062 C 148.699219 226.242188 153.757812 222.195312 160.507812 219.445312 L 160.554688 219.425781 C 163.460938 218.332031 168.519531 217.175781 171.636719 217.210938 L 171.703125 217.210938 C 177.800781 217.476562 184.148438 218.082031 188.929688 222.234375 L 188.976562 222.28125 C 190.875 224.050781 192.355469 226.507812 193.367188 229.578125 C 197.117188 240.417969 196.210938 247.589844 190.820312 249.75 C 188.957031 250.488281 188.253906 252.105469 187.273438 254.675781 C 186.816406 255.863281 186.347656 257.09375 185.660156 258.257812 C 182.203125 264.238281 180.371094 266.980469 173.285156 269.167969 L 173.175781 269.203125 C 170.707031 270.011719 169.527344 270.582031 169.472656 271.664062 L 169.472656 271.714844 C 169.347656 273.566406 170.003906 276.675781 170.59375 279.425781 C 170.859375 280.65625 171.113281 281.824219 171.296875 282.898438 C 171.539062 283.9375 171.753906 284.949219 171.941406 285.941406 C 172.546875 288.980469 173.066406 291.597656 174.667969 293.738281 C 176.542969 295.867188 180.027344 295.28125 184.375 294.308594 L 185.625 294.027344 C 188.382812 293.375 191.144531 292.746094 193.914062 292.144531 L 194.648438 291.992188 C 199.679688 290.953125 203.3125 290.203125 207.992188 291.445312 C 210.386719 292.074219 214.226562 294.617188 215.203125 297.757812 C 215.472656 298.585938 215.511719 299.421875 215.328125 300.269531 C 215.144531 301.117188 214.757812 301.859375 214.171875 302.496094 "/></g><g clip-rule="nonzero" clip-path="url(#2577e05e85)"><path style=" stroke:none;fill-rule:evenodd;fill:#ffffff;fill-opacity:1;" d="M 291.871094 319.835938 L 287.351562 331.398438 L 282.25 331.675781 L 282.25 341.261719 C 282.25 341.582031 282.519531 341.855469 282.847656 341.855469 C 283.925781 341.855469 284.9375 342.320312 285.628906 343.125 C 286.320312 343.933594 286.617188 345 286.445312 346.042969 L 286.429688 346.152344 L 284.34375 353.605469 L 218.894531 353.605469 L 218.902344 352.476562 C 218.914062 351.335938 218.855469 350.382812 218.839844 348.882812 C 218.824219 346.917969 218.824219 347.359375 218.847656 344.933594 L 210.8125 344.804688 L 210.75 344.804688 C 210.246094 344.765625 209.765625 344.636719 209.3125 344.417969 C 208.855469 344.199219 208.457031 343.90625 208.113281 343.535156 C 207.769531 343.167969 207.503906 342.75 207.316406 342.28125 C 207.128906 341.8125 207.03125 341.324219 207.027344 340.820312 L 207.027344 329.617188 C 207.027344 327.539062 208.671875 325.859375 210.769531 325.796875 L 213.816406 325.695312 C 213.976562 324.960938 214.175781 324.695312 214.417969 323.417969 L 199.871094 323.371094 C 199.304688 323.375 198.777344 323.234375 198.289062 322.957031 C 197.796875 322.675781 197.410156 322.296875 197.121094 321.808594 C 196.542969 320.839844 197.25 318.949219 197.800781 317.957031 L 198.84375 316.089844 C 199.125 315.582031 199.519531 315.183594 200.019531 314.890625 C 200.519531 314.59375 201.058594 314.449219 201.640625 314.453125 L 217.113281 314.453125 C 217.273438 314.453125 217.417969 314.40625 217.550781 314.3125 C 217.679688 314.21875 217.773438 314.097656 217.824219 313.945312 L 230.191406 276.320312 C 230.304688 275.976562 230.46875 275.65625 230.679688 275.359375 C 230.890625 275.066406 231.144531 274.808594 231.433594 274.589844 C 231.722656 274.371094 232.039062 274.199219 232.378906 274.078125 C 232.722656 273.957031 233.074219 273.886719 233.4375 273.871094 L 287.546875 271.546875 L 287.707031 271.546875 C 287.976562 271.542969 288.242188 271.574219 288.507812 271.632812 C 288.769531 271.691406 289.023438 271.78125 289.265625 271.898438 C 289.507812 272.015625 289.734375 272.15625 289.945312 272.324219 C 290.15625 272.496094 290.34375 272.683594 290.511719 272.894531 C 290.675781 273.105469 290.816406 273.335938 290.933594 273.578125 C 291.046875 273.824219 291.132812 274.074219 291.191406 274.339844 C 291.25 274.601562 291.277344 274.867188 291.273438 275.136719 C 291.269531 275.40625 291.234375 275.671875 291.171875 275.933594 C 289.648438 281.964844 284.476562 300.191406 281.699219 309.980469 C 281.113281 312.03125 280.605469 313.808594 280.3125 314.859375 C 281.355469 314.921875 282.832031 314.921875 283.605469 314.921875 L 288.46875 314.921875 C 289.066406 314.921875 289.632812 315.058594 290.164062 315.335938 C 290.695312 315.613281 291.132812 315.996094 291.476562 316.488281 C 292.15625 317.464844 292.300781 318.71875 291.871094 319.832031 Z M 291.871094 319.835938 "/></g><g clip-rule="nonzero" clip-path="url(#b41f295c19)"><path style=" stroke:none;fill-rule:nonzero;fill:#414042;fill-opacity:1;" d="M 189.375 353.609375 L 173.433594 353.609375 C 174.34375 352.425781 175.277344 350.730469 177.191406 349.277344 C 179.75 347.332031 181.960938 346.394531 184.652344 348.421875 C 186.207031 349.601562 187.566406 352.039062 189.375 353.609375 "/></g><g clip-rule="nonzero" clip-path="url(#063affc9aa)"><path style=" stroke:none;fill-rule:nonzero;fill:#414042;fill-opacity:1;" d="M 0.00390625 353.609375 L 134.222656 353.609375 C 131.773438 351.808594 125.148438 334.882812 124.785156 323.386719 C 124.429688 311.890625 125.90625 303.464844 134.222656 289.945312 C 142.542969 276.417969 156.265625 268.429688 156.730469 266.152344 C 157.199219 263.875 148.660156 258.417969 147.402344 257.042969 C 142.109375 251.257812 141.609375 244.101562 147.332031 234.523438 C 153.054688 224.945312 158.28125 220.570312 169.195312 220.640625 C 180.105469 220.710938 185.109375 223.058594 190.078125 228.738281 C 195.046875 234.375 195.226562 246.632812 189.753906 248.839844 C 185.832031 250.429688 185.648438 254.835938 183.773438 258.054688 C 180.640625 263.550781 179.203125 265.933594 172.90625 267.890625 C 170.742188 268.617188 167.898438 269.480469 167.789062 272.195312 C 167.570312 275.195312 171.0625 292.511719 173.261719 295.296875 C 175.460938 298.082031 181.796875 297.175781 185.933594 296.308594 C 188.601562 295.65625 202.394531 292.582031 206.679688 293.742188 C 209.273438 294.425781 214.316406 298.332031 211.6875 301.367188 C 210.574219 302.601562 207.4375 302.269531 205.097656 302.523438 L 205.023438 302.523438 C 201.316406 302.851562 189.929688 304.585938 190.585938 309.71875 C 190.585938 309.71875 193.429688 320.058594 194.183594 324.003906 C 194.511719 325.59375 196.492188 337.558594 196.957031 342.257812 C 197.136719 345.152344 197.785156 350.894531 195.839844 353.609375 L 220.835938 353.609375 L 220.835938 342.585938 L 211.078125 342.441406 C 210.835938 342.425781 210.605469 342.363281 210.386719 342.257812 C 210.167969 342.15625 209.976562 342.011719 209.8125 341.835938 C 209.648438 341.65625 209.523438 341.453125 209.4375 341.226562 C 209.351562 341 209.308594 340.765625 209.3125 340.523438 L 209.3125 329.5 C 209.3125 328.554688 210.070312 327.761719 211.003906 327.722656 L 214.171875 327.613281 C 214.574219 327.605469 214.933594 327.476562 215.242188 327.21875 C 215.554688 326.960938 215.75 326.632812 215.832031 326.238281 C 216.078125 325.15625 216.910156 321.363281 216.910156 321.363281 L 200.34375 321.363281 C 199.515625 321.289062 198.972656 320.421875 199.371094 319.664062 L 201.097656 317.097656 C 201.191406 316.914062 201.324219 316.769531 201.5 316.664062 C 201.675781 316.558594 201.867188 316.511719 202.074219 316.515625 L 217.089844 316.515625 C 218.277344 316.515625 219.320312 315.757812 219.683594 314.636719 L 231.675781 277.578125 C 231.765625 277.285156 231.933594 277.042969 232.175781 276.855469 C 232.421875 276.671875 232.699219 276.574219 233.003906 276.566406 L 285.546875 274.289062 C 285.777344 274.277344 286 274.316406 286.210938 274.410156 C 286.421875 274.503906 286.597656 274.640625 286.746094 274.820312 C 286.890625 274.996094 286.988281 275.199219 287.039062 275.425781 C 287.089844 275.648438 287.085938 275.875 287.027344 276.097656 C 285.011719 284.121094 276.367188 314.78125 276.222656 315.433594 C 275.867188 316.808594 276.761719 316.988281 278.925781 316.988281 L 282.414062 316.988281 C 283.496094 316.988281 283.859375 317.207031 283.859375 319.085938 L 283.859375 327.761719 C 283.859375 328.703125 283.097656 329.492188 282.128906 329.492188 L 279.753906 329.492188 C 279.558594 329.503906 279.371094 329.550781 279.195312 329.628906 C 279.015625 329.710938 278.863281 329.824219 278.726562 329.964844 C 278.59375 330.105469 278.488281 330.265625 278.417969 330.449219 C 278.34375 330.628906 278.308594 330.816406 278.308594 331.011719 L 278.308594 340.8125 C 278.308594 342.222656 279.464844 343.519531 280.90625 343.519531 C 282.34375 343.519531 282.597656 344.355469 282.414062 345.296875 L 282.414062 353.609375 L 349.832031 353.609375 C 347.78125 345.152344 330.421875 282.714844 184.101562 139.476562 L 183.742188 139.460938 C 177.835938 153.808594 171.386719 168.105469 164.222656 181.878906 C 143.082031 221.867188 111.539062 274.292969 71.921875 311.316406 L 71.957031 311.277344 C 54.421875 327.613281 35.296875 340.988281 14.800781 348.910156 C 10.84375 350.25 7.53125 351.371094 5.042969 352.234375 C 3.636719 352.632812 2.242188 352.816406 0.832031 353.183594 Z M 0.00390625 353.609375 "/></g><g clip-rule="nonzero" clip-path="url(#6794361f44)"><path style=" stroke:none;fill-rule:nonzero;fill:#ffffff;fill-opacity:1;" d="M 374.972656 351.996094 C 374.972656 351.996094 358.226562 236.6875 165.984375 21.359375 C 165.984375 21.359375 101.847656 250.71875 0.00390625 353.609375 C 0.253906 353.539062 0.542969 353.5 0.796875 353.429688 C 2.199219 353.070312 3.644531 352.671875 5.042969 352.273438 C 7.53125 351.402344 10.84375 350.285156 14.800781 348.949219 C 35.296875 341.027344 54.421875 327.652344 71.957031 311.3125 C 111.574219 274.289062 143.117188 221.867188 164.257812 181.878906 C 171.425781 168.105469 178.191406 153.828125 184.097656 139.476562 L 190.941406 145.148438 C 217.664062 167.242188 244.027344 190.050781 268.335938 214.777344 C 304.496094 252.199219 338.597656 292.257812 365.425781 337.050781 C 367.261719 340.230469 371.820312 348.742188 373.476562 351.992188 Z M 374.972656 351.996094 "/></g><path style=" stroke:none;fill-rule:nonzero;fill:#ffffff;fill-opacity:1;" d="M 87.902344 98.222656 C 64.3125 74.539062 23.222656 98.222656 23.222656 98.222656 L 23.222656 169.257812 C 23.222656 169.257812 64.3125 145.574219 87.902344 169.257812 C 90.890625 172.257812 97.109375 176.199219 100.964844 177.828125 C 111.804688 153.964844 122.050781 127.765625 130.730469 103.90625 C 119.277344 108.894531 102.949219 113.332031 87.898438 98.21875 "/></g></svg>